<svg width="40" height="40" viewBox="0 0 40 40" fill="none" xmlns="http://www.w3.org/2000/svg">
<path d="M26.9947 2.85733V3.00733H27.1447H31.4307C32.5276 3.00733 33.5796 3.44309 34.3553 4.21874C35.1309 4.99439 35.5667 6.0464 35.5667 7.14334V21.8072V21.8855L35.631 21.9303C36.8124 22.7527 37.799 23.8242 38.5213 25.0693C39.2436 26.3145 39.6839 27.7029 39.8114 29.1367C39.9388 30.5705 39.7501 32.0148 39.2588 33.3678C38.7674 34.7207 37.9852 35.9495 36.9673 36.9673C35.9495 37.9852 34.7207 38.7674 33.3678 39.2588C32.0148 39.7501 30.5705 39.9388 29.1367 39.8114C27.7029 39.6839 26.3145 39.2436 25.0693 38.5213C23.8242 37.799 22.7527 36.8124 21.9303 35.631L21.8855 35.5667H21.8072H4.286C3.18907 35.5667 2.13706 35.1309 1.36141 34.3553C0.585756 33.5796 0.15 32.5276 0.15 31.4307V7.14334C0.15 6.0464 0.585756 4.99439 1.36141 4.21874C2.13706 3.44309 3.18907 3.00733 4.286 3.00733H8.572H8.722V2.85733V1.42867C8.722 1.08954 8.85672 0.76431 9.09652 0.524513C9.33631 0.284716 9.66155 0.15 10.0007 0.15C10.3398 0.15 10.665 0.284716 10.9048 0.524513C11.1446 0.76431 11.2793 1.08954 11.2793 1.42867V2.85733V3.00733H11.4293H24.2873H24.4373V2.85733V1.42867C24.4373 1.08954 24.5721 0.764309 24.8119 0.524513C25.0517 0.284716 25.3769 0.15 25.716 0.15C26.0551 0.15 26.3804 0.284716 26.6202 0.524513C26.86 0.764309 26.9947 1.08954 26.9947 1.42867V2.85733ZM8.722 5.71467V5.56467H8.572H4.286C3.86731 5.56467 3.46577 5.73099 3.16972 6.02705C2.87366 6.32311 2.70733 6.72465 2.70733 7.14334V11.4293V11.5793H2.85733H32.8593H33.0093V11.4293V7.14334C33.0093 6.72465 32.843 6.32311 32.547 6.02705C32.2509 5.73099 31.8494 5.56467 31.4307 5.56467H27.1447H26.9947V5.71467V6.48329C26.9947 6.82242 26.86 7.14765 26.6202 7.38745C26.3804 7.62724 26.0551 7.76196 25.716 7.76196C25.3769 7.76196 25.0517 7.62724 24.8119 7.38745C24.5721 7.14765 24.4373 6.82242 24.4373 6.48329V5.71467V5.56467H24.2873H11.4293H11.2793V5.71467V6.48329C11.2793 6.82242 11.1446 7.14765 10.9048 7.38745C10.665 7.62724 10.3398 7.76196 10.0007 7.76196C9.66155 7.76196 9.33631 7.62724 9.09652 7.38745C8.85672 7.14765 8.722 6.82242 8.722 6.48329V5.71467ZM2.85733 14.1367H2.70733V14.2867V31.4307C2.70733 31.8494 2.87366 32.2509 3.16972 32.547C3.46577 32.843 3.86731 33.0093 4.286 33.0093H20.4299H20.6313L20.5737 32.8164C20.0655 31.1161 20.0268 29.31 20.4616 27.5895C20.8963 25.8689 21.7884 24.298 23.0432 23.0432C24.298 21.7884 25.8689 20.8963 27.5895 20.4616C29.31 20.0268 31.1161 20.0655 32.8164 20.5737L33.0093 20.6313V20.4299V14.2867V14.1367H32.8593H2.85733ZM37.2953 30.0022V30.002C37.2953 28.5595 36.8676 27.1494 36.0662 25.9501C35.2648 24.7507 34.1257 23.8159 32.7931 23.2638C31.4604 22.7118 29.9939 22.5674 28.5792 22.8488C27.1644 23.1302 25.8648 23.8249 24.8448 24.8448C23.8249 25.8648 23.1302 27.1644 22.8488 28.5792C22.5674 29.9939 22.7118 31.4604 23.2638 32.7931C23.8159 34.1257 24.7507 35.2648 25.9501 36.0662C27.1494 36.8676 28.5595 37.2953 30.002 37.2953V37.1461L30.0022 37.2953C31.9357 37.293 33.7894 36.5239 35.1567 35.1567C36.5239 33.7894 37.293 31.9357 37.2953 30.0022Z" fill="#00B5E6" stroke="white" stroke-width="0.3"/>
<path d="M31.2807 29.1189V29.2116L31.3637 29.253L33.4309 30.286L33.431 30.286C33.5813 30.361 33.7153 30.465 33.8254 30.5918C33.9355 30.7187 34.0196 30.866 34.0728 31.0254C34.126 31.1847 34.1473 31.353 34.1355 31.5206C34.1236 31.6881 34.0789 31.8517 34.0038 32.002C33.9288 32.1523 33.8248 32.2864 33.698 32.3965C33.5711 32.5066 33.4238 32.5907 33.2644 32.6439C32.9426 32.7513 32.5913 32.7265 32.2878 32.5749C32.2878 32.5749 32.2878 32.5749 32.2878 32.5749L29.4305 31.1463L29.4305 31.1463C29.2179 31.04 29.0392 30.8767 28.9143 30.6746C28.7894 30.4724 28.7233 30.2395 28.7234 30.0018V30.0018V25.7158C28.7234 25.3767 28.8581 25.0514 29.0979 24.8116C29.3377 24.5718 29.6629 24.4371 30.002 24.4371C30.3412 24.4371 30.6664 24.5718 30.9062 24.8116C31.146 25.0514 31.2807 25.3767 31.2807 25.7158V29.1189Z" fill="#00B5E6" stroke="white" stroke-width="0.3"/>
<path d="M8.57198 18.7228H11.4293C11.7684 18.7228 12.0937 18.8575 12.3335 19.0973C12.5733 19.3371 12.708 19.6623 12.708 20.0014C12.708 20.3405 12.5733 20.6658 12.3335 20.9056C12.0937 21.1454 11.7684 21.2801 11.4293 21.2801H8.57198C8.23285 21.2801 7.90762 21.1454 7.66782 20.9056C7.42803 20.6658 7.29331 20.3405 7.29331 20.0014C7.29331 19.6623 7.42803 19.3371 7.66782 19.0973C7.90762 18.8575 8.23285 18.7228 8.57198 18.7228Z" fill="#00B5E6" stroke="white" stroke-width="0.3"/>
<path d="M20.9055 19.0973C21.1453 19.3371 21.28 19.6623 21.28 20.0014C21.28 20.3405 21.1453 20.6658 20.9055 20.9056C20.6657 21.1454 20.3405 21.2801 20.0013 21.2801H17.144C16.8049 21.2801 16.4796 21.1454 16.2398 20.9056C16 20.6658 15.8653 20.3405 15.8653 20.0014C15.8653 19.6623 16 19.3371 16.2398 19.0973C16.4796 18.8575 16.8049 18.7228 17.144 18.7228H20.0013C20.3405 18.7228 20.6657 18.8575 20.9055 19.0973Z" fill="#00B5E6" stroke="white" stroke-width="0.3"/>
<path d="M8.57198 25.8658H11.4293C11.7684 25.8658 12.0937 26.0005 12.3335 26.2403C12.5733 26.4801 12.708 26.8054 12.708 27.1445C12.708 27.4836 12.5733 27.8088 12.3335 28.0486C12.0937 28.2884 11.7684 28.4232 11.4293 28.4232H8.57198C8.23285 28.4232 7.90762 28.2884 7.66782 28.0486C7.42803 27.8088 7.29331 27.4836 7.29331 27.1445C7.29331 26.8054 7.42803 26.4801 7.66782 26.2403C7.90762 26.0005 8.23285 25.8658 8.57198 25.8658Z" fill="#00B5E6" stroke="white" stroke-width="0.3"/>
</svg>
