<svg width="40" height="40" viewBox="0 0 40 40" fill="none" xmlns="http://www.w3.org/2000/svg">
<path d="M34.1516 9.60312H34.451L34.2718 9.36334C31.8703 6.14942 28.4101 3.77035 24.4122 2.74734L24.0322 2.6501L24.2503 2.97609C25.4957 4.8369 26.3395 7.30616 26.8758 9.48892L26.9039 9.60312H27.0215H34.1516ZM24.6035 9.60312H24.7985L24.7485 9.41464C24.2025 7.35752 23.5047 5.62032 22.7003 4.34071C22.2736 3.662 21.8243 3.12852 21.3716 2.76321C20.9197 2.39844 20.4545 2.19375 20 2.19375C19.5455 2.19375 19.0804 2.39844 18.6284 2.76322C18.1758 3.12853 17.7265 3.662 17.2998 4.34071C16.4953 5.62032 15.7976 7.35745 15.2515 9.41464L15.2015 9.60312H15.3965H24.6035ZM15.7497 2.97609L15.9678 2.6501L15.5878 2.74734C11.5899 3.77035 8.12966 6.14942 5.7282 9.36334L5.54903 9.60312H5.84836H12.9785H13.0961L13.1242 9.48892C13.6605 7.30647 14.5044 4.83674 15.7497 2.97609ZM35.7636 11.7269L35.7214 11.6469H35.6309H4.36906H4.27855L4.23636 11.727C2.93306 14.2005 2.19375 17.0154 2.19375 20C2.19375 22.9846 2.93306 25.7995 4.23644 28.2731L4.27863 28.3531H4.36914H4.3785H4.38845H4.39898H4.41009H4.42179H4.43407H4.44692H4.46035H4.47435H4.48892H4.50405H4.51975H4.53602H4.55284H4.57023H4.58817H4.60666H4.62571H4.6453H4.66544H4.68613H4.70736H4.72913H4.75144H4.77428H4.79766H4.82157H4.846H4.87097H4.89646H4.92247H4.949H4.97605H5.00361H5.03169H5.06027H5.08937H5.11897H5.14908H5.17969H5.2108H5.2424H5.2745H5.30709H5.34018H5.37375H5.4078H5.44234H5.47737H5.51287H5.54884H5.5853H5.62222H5.65962H5.69748H5.73581H5.7746H5.81385H5.85356H5.89373H5.93435H5.97542H6.01694H6.05891H6.10133H6.14419H6.18748H6.23122H6.27539H6.32H6.36504H6.4105H6.4564H6.50272H6.54946H6.59662H6.6442H6.69219H6.7406H6.78941H6.83864H6.88828H6.93831H6.98875H7.03959H7.09083H7.14246H7.19449H7.2469H7.29971H7.3529H7.40647H7.46043H7.51476H7.56947H7.62456H7.68002H7.73585H7.79204H7.84861H7.90553H7.96282H8.02047H8.07847H8.13682H8.19553H8.25459H8.314H8.37375H8.43384H8.49428H8.55505H8.61616H8.67761H8.73938H8.80149H8.86392H8.92668H8.98975H9.05315H9.11687H9.18091H9.24525H9.30991H9.37488H9.44015H9.50573H9.57161H9.63779H9.70427H9.77104H9.83811H9.90546H9.97311H10.041H10.1093H10.1778H10.2465H10.3156H10.3849H10.4545H10.5244H10.5945H10.6649H10.7356H10.8065H10.8777H10.9492H11.0209H11.0928H11.165H11.2375H11.3102H11.3831H11.4563H11.5297H11.6034H11.6773H11.7514H11.8257H11.9003H11.9751H12.0501H12.1254H12.2009H12.2765H12.3524H12.4285H12.5049H12.5814H12.6581H12.735H12.8122H12.8895H12.967H13.0447H13.1226H13.2007H13.279H13.3575H13.4361H13.515H13.594H13.6731H13.7525H13.832H13.9117H13.9916H14.0716H14.1518H14.2321H14.3126H14.3933H14.4741H14.555H14.6361H14.7174H14.7988H14.8803H14.962H15.0438H15.1257H15.2078H15.29H15.3724H15.4548H15.5374H15.6201H15.7029H15.7859H15.8689H15.9521H16.0354H16.1187H16.2022H16.2858H16.3695H16.4533H16.5372H16.6211H16.7052H16.7894H16.8736H16.9579H17.0423H17.1268H17.2114H17.296H17.3807H17.4655H17.5504H17.6353H17.7203H17.8053H17.8904H17.9756H18.0608H18.1461H18.2314H18.3168H18.4022H18.4876H18.5731H18.6587H18.7442H18.8298H18.9155H19.0012H19.0869H19.1726H19.2583H19.3441H19.4299H19.5157H19.6015H19.6873H19.7732H19.859H19.9449H20.0307H20.1166H20.2024H20.2883H20.3741H20.4599H20.5458H20.6316H20.7174H20.8031H20.8889H20.9746H21.0603H21.146H21.2317H21.3173H21.4029H21.4884H21.5739H21.6594H21.7449H21.8302H21.9156H22.0009H22.0861H22.1713H22.2564H22.3415H22.4265H22.5114H22.5963H22.6811H22.7659H22.8506H22.9351H23.0197H23.1041H23.1885H23.2727H23.3569H23.441H23.5251H23.609H23.6928H23.7765H23.8602H23.9437H24.0271H24.1104H24.1936H24.2767H24.3597H24.4426H24.5253H24.608H24.6905H24.7729H24.8551H24.9373H25.0193H25.1011H25.1829H25.2644H25.3459H25.4272H25.5084H25.5894H25.6703H25.751H25.8315H25.912H25.9922H26.0723H26.1522H26.232H26.3116H26.391H26.4702H26.5493H26.6282H26.707H26.7855H26.8639H26.942H27.02H27.0978H27.1754H27.2528H27.33H27.407H27.4839H27.5605H27.6369H27.7131H27.789H27.8648H27.9404H28.0157H28.0908H28.1657H28.2404H28.3148H28.389H28.463H28.5368H28.6103H28.6836H28.7566H28.8294H28.902H28.9743H29.0463H29.1181H29.1897H29.261H29.332H29.4028H29.4733H29.5436H29.6136H29.6833H29.7527H29.8219H29.8908H29.9594H30.0277H30.0958H30.1635H30.231H30.2982H30.3651H30.4317H30.498H30.564H30.6297H30.6951H30.7602H30.825H30.8895H30.9536H31.0175H31.081H31.1442H31.2071H31.2697H31.3319H31.3938H31.4554H31.5167H31.5776H31.6382H31.6984H31.7583H31.8178H31.877H31.9359H31.9944H32.0525H32.1103H32.1678H32.2249H32.2816H32.3379H32.3939H32.4495H32.5048H32.5596H32.6141H32.6682H32.722H32.7753H32.8283H32.8808H32.933H32.9848H33.0362H33.0872H33.1378H33.188H33.2378H33.2872H33.3362H33.3848H33.433H33.4807H33.5281H33.575H33.6215H33.6675H33.7132H33.7584H33.8032H33.8475H33.8915H33.9349H33.978H34.0206H34.0627H34.1044H34.1457H34.1865H34.2269H34.2668H34.3062H34.3452H34.3837H34.4218H34.4594H34.4965H34.5331H34.5693H34.605H34.6402H34.675H34.7092H34.743H34.7763H34.8091H34.8414H34.8732H34.9045H34.9353H34.9656H34.9954H35.0247H35.0535H35.0818H35.1096H35.1369H35.1636H35.1898H35.2155H35.2407H35.2654H35.2895H35.3131H35.3362H35.3587H35.3807H35.4022H35.4231H35.4434H35.4633H35.4825H35.5013H35.5194H35.537H35.5541H35.5706H35.5865H35.6019H35.6167H35.6309H35.7215L35.7636 28.273C37.0669 25.7995 37.8063 22.9846 37.8063 20C37.8063 17.0154 37.0669 14.2005 35.7636 11.7269ZM15.3964 30.3969H15.2014L15.2514 30.5854C15.7975 32.6425 16.4952 34.3797 17.2997 35.6593C17.7265 36.338 18.1757 36.8715 18.6284 37.2368C19.0804 37.6016 19.5455 37.8063 20 37.8063C20.4545 37.8063 20.9197 37.6016 21.3716 37.2368C21.8243 36.8715 22.2736 36.338 22.7003 35.6593C23.5047 34.3797 24.2024 32.6426 24.7485 30.5854L24.7985 30.3969H24.6035H15.3964ZM13.1242 30.5111L13.0961 30.3969H12.9785H5.84836H5.54903L5.7282 30.6367C8.12966 33.8506 11.5899 36.2297 15.5878 37.2527L15.9678 37.3499L15.7497 37.0239C14.5044 35.163 13.6609 32.6956 13.1242 30.5111ZM24.2503 37.0239L24.0322 37.3499L24.4122 37.2527C28.4101 36.2297 31.8703 33.8506 34.2718 30.6367L34.451 30.3969H34.1516H27.0215H26.9039L26.8758 30.5111C26.3392 32.6948 25.4953 35.1636 24.2503 37.0239ZM0.15 20C0.15 9.07104 9.07042 0.15 20 0.15C30.929 0.15 39.85 9.07042 39.85 20C39.85 30.929 30.9295 39.85 20 39.85C9.07104 39.85 0.15 30.9295 0.15 20Z" fill="#00B5E6" stroke="white" stroke-width="0.3"/>
<path d="M11.6469 24.6875C11.6469 25.2518 11.1893 25.7094 10.625 25.7094C10.0607 25.7094 9.60313 25.2518 9.60313 24.6875V15.3125C9.60313 14.7482 10.0607 14.2906 10.625 14.2906C11.1893 14.2906 11.6469 14.7482 11.6469 15.3125V24.6875Z" fill="#00B5E6" stroke="white" stroke-width="0.3"/>
<path d="M19.0194 22.3438C19.0194 21.6147 18.4266 21.0219 17.6976 21.0219C15.8419 21.0219 14.3319 19.5119 14.3319 17.6562C14.3319 15.8006 15.8419 14.2906 17.6976 14.2906C18.5969 14.2906 19.4415 14.6404 20.0774 15.2764C20.4765 15.6755 20.4765 16.3224 20.0774 16.7215C19.6784 17.1206 19.0314 17.1206 18.6323 16.7215C18.3828 16.4721 18.0505 16.3344 17.6976 16.3344C16.9686 16.3344 16.3758 16.9272 16.3758 17.6562C16.3758 18.3853 16.9686 18.9781 17.6976 18.9781C19.5533 18.9781 21.0633 20.4881 21.0633 22.3438C21.0633 24.1994 19.5533 25.7094 17.6976 25.7094C16.7984 25.7094 15.9537 25.3596 15.3178 24.7236C14.9187 24.3245 14.9187 23.6776 15.3178 23.2785C15.7169 22.8794 16.3638 22.8794 16.7629 23.2785C17.0124 23.528 17.3448 23.6656 17.6976 23.6656C18.4266 23.6656 19.0194 23.0728 19.0194 22.3438Z" fill="#00B5E6" stroke="white" stroke-width="0.3"/>
<path d="M30.4382 22.3438C30.4382 24.1994 28.9282 25.7094 27.0726 25.7094C25.2169 25.7094 23.7069 24.1994 23.7069 22.3438V17.6562C23.7069 15.8006 25.2169 14.2906 27.0726 14.2906C28.9282 14.2906 30.4382 15.8006 30.4382 17.6562V22.3438ZM27.0726 16.3344C26.3436 16.3344 25.7507 16.9272 25.7507 17.6562V22.3438C25.7507 23.0728 26.3436 23.6656 27.0726 23.6656C27.8016 23.6656 28.3944 23.0728 28.3944 22.3438V17.6562C28.3944 16.9272 27.8016 16.3344 27.0726 16.3344Z" fill="#00B5E6" stroke="white" stroke-width="0.3"/>
</svg>
