<svg width="22" height="23" viewBox="0 0 22 23" fill="none" xmlns="http://www.w3.org/2000/svg">
<path d="M2.40945 11H0V18H1.28822V16.07H2.40945C3.89648 16.07 4.82686 15.1 4.82686 13.54C4.82686 11.97 3.89648 11 2.40945 11ZM2.33789 14.75H1.28822V12.32H2.33789C3.12513 12.32 3.52273 12.77 3.52273 13.54C3.52273 14.3 3.12513 14.75 2.33789 14.75Z" fill="#00BAEC"/>
<path d="M5.98512 18H8.51385C10.3349 18 11.5833 16.62 11.5833 14.5C11.5833 12.38 10.3349 11 8.51385 11H5.98512V18ZM7.27334 16.67V12.33H8.45024C9.55557 12.33 10.2792 13.16 10.2792 14.5C10.2792 15.84 9.55557 16.67 8.45024 16.67H7.27334Z" fill="#00BAEC"/>
<path d="M17 12.3V11H12.7934V18H14.0816V15.45H16.6581V14.15H14.0816V12.3H17Z" fill="#00BAEC"/>
<path fill-rule="evenodd" clip-rule="evenodd" d="M5 2V8H3V2V0H5H14H16.0889L22 6V8V21V23H20H5H3V21H5H20V8H14V2H5Z" fill="#00BAEC"/>
</svg>
