<svg width="44" height="40" viewBox="0 0 44 40" fill="none" xmlns="http://www.w3.org/2000/svg">
<path d="M30.9129 25.8357C29.9801 25.1207 29.2847 24.1289 28.9612 22.999C28.1048 20.0085 25.3516 17.8198 22.0858 17.8198C18.8201 17.8198 16.0668 20.0085 15.2105 22.999C14.8869 24.1289 14.1916 25.1207 13.2588 25.8357C11.506 27.1794 10.3929 29.3154 10.457 31.7093C10.5581 35.4917 13.6451 38.5712 17.4278 38.6641C18.3893 38.6877 19.3088 38.5211 20.1519 38.1995C21.397 37.7247 22.7749 37.7247 24.02 38.1995C24.8631 38.521 25.7826 38.6877 26.7441 38.6641C30.5267 38.5713 33.6138 35.4917 33.7149 31.7093C33.7787 29.3154 32.6657 27.1794 30.9129 25.8357Z" stroke="white" stroke-width="2.5" stroke-miterlimit="10"/>
<path d="M6.09306 23.4408C8.35359 23.4408 10.1861 21.0958 10.1861 18.203C10.1861 15.3102 8.35359 12.9651 6.09306 12.9651C3.83252 12.9651 2 15.3102 2 18.203C2 21.0958 3.83252 23.4408 6.09306 23.4408Z" stroke="white" stroke-width="2.5" stroke-miterlimit="10"/>
<path d="M37.9073 23.4408C40.1678 23.4408 42.0003 21.0958 42.0003 18.203C42.0003 15.3102 40.1678 12.9651 37.9073 12.9651C35.6467 12.9651 33.8142 15.3102 33.8142 18.203C33.8142 21.0958 35.6467 23.4408 37.9073 23.4408Z" stroke="white" stroke-width="2.5" stroke-miterlimit="10"/>
<path d="M15.3697 12.1722C17.6302 12.1722 19.4627 9.82715 19.4627 6.93437C19.4627 4.04159 17.6302 1.69653 15.3697 1.69653C13.1091 1.69653 11.2766 4.04159 11.2766 6.93437C11.2766 9.82715 13.1091 12.1722 15.3697 12.1722Z" stroke="white" stroke-width="2.5" stroke-miterlimit="10"/>
<path d="M28.9202 12.1722C31.1807 12.1722 33.0133 9.82715 33.0133 6.93437C33.0133 4.04159 31.1807 1.69653 28.9202 1.69653C26.6597 1.69653 24.8271 4.04159 24.8271 6.93437C24.8271 9.82715 26.6597 12.1722 28.9202 12.1722Z" stroke="white" stroke-width="2.5" stroke-miterlimit="10"/>
</svg>
