<svg width="37" height="42" viewBox="0 0 37 42" fill="none" xmlns="http://www.w3.org/2000/svg">
<path d="M23.4215 26.3929L11.8087 14.7801C10.526 13.4973 10.526 11.4176 11.8087 10.1349L14.1312 7.81238C15.414 6.52966 17.4937 6.52966 18.7764 7.81238L30.3891 19.4251" stroke="white" stroke-width="2.5" stroke-miterlimit="10" stroke-linecap="round" stroke-linejoin="round"/>
<path d="M6.00195 6.65125L10.647 2.0061" stroke="white" stroke-width="2.5" stroke-miterlimit="10" stroke-linecap="round" stroke-linejoin="round"/>
<path d="M12.9703 8.97376L8.3252 4.32861" stroke="white" stroke-width="2.5" stroke-miterlimit="10" stroke-linecap="round" stroke-linejoin="round"/>
<path d="M34.9996 34.6869H28.4304" stroke="white" stroke-width="2.5" stroke-miterlimit="10" stroke-linecap="round" stroke-linejoin="round"/>
<path d="M21.8616 40.5991V34.6869H12.0078V40.5991" stroke="white" stroke-width="2.5" stroke-miterlimit="10" stroke-linecap="round" stroke-linejoin="round"/>
<path d="M2.1543 40.5992H35.0002" stroke="white" stroke-width="2.5" stroke-miterlimit="10" stroke-linecap="round" stroke-linejoin="round"/>
<path d="M15.2926 18.264H10.3658C5.83074 18.264 2.1543 21.9404 2.1543 26.4755C2.1543 31.0106 5.83065 34.6869 10.3658 34.6869H12.0081" stroke="white" stroke-width="2.5" stroke-miterlimit="10" stroke-linecap="round" stroke-linejoin="round"/>
<path d="M21.0989 28.7155L32.7116 17.1028" stroke="white" stroke-width="2.5" stroke-miterlimit="10" stroke-linecap="round" stroke-linejoin="round"/>
</svg>
