<svg width="38" height="44" viewBox="0 0 38 44" fill="none" xmlns="http://www.w3.org/2000/svg">
<path d="M13.7867 17.6002C15.077 16.5837 16.5541 15.7937 18.1579 15.2899V1.99996H26.3968V15.2899C31.9677 17.0397 36.0088 22.2439 36.0088 28.3923C36.0088 35.976 29.861 42.1238 22.2774 42.1238C18.8701 42.1238 15.7528 40.8828 13.3525 38.8283" stroke="white" stroke-width="2.2" stroke-miterlimit="22.926" stroke-linecap="round" stroke-linejoin="round"/>
<path d="M15.8652 2H28.6889" stroke="white" stroke-width="2.2" stroke-miterlimit="22.926" stroke-linecap="round" stroke-linejoin="round"/>
<path d="M13.9697 26.8317C14.6384 27.1017 15.2923 27.4769 15.9991 27.4769C17.1032 27.4769 18.0782 26.5615 19.1821 26.5615C20.2861 26.5615 21.2611 27.4769 22.3652 27.4769C23.4692 27.4769 24.4441 26.5615 25.5481 26.5615C26.6521 26.5615 27.6271 27.4769 28.7311 27.4769C29.8351 27.4769 30.8101 26.5615 31.9141 26.5615C33.0181 26.5615 34.0361 27.1718 35.0971 27.4769" stroke="white" stroke-width="2.2" stroke-miterlimit="22.926" stroke-linecap="round" stroke-linejoin="round"/>
<path d="M13.1679 8.98508V36.9964C13.1679 39.8157 10.861 42.1228 8.04146 42.1228C5.22193 42.1228 2.91504 39.816 2.91504 36.9964V8.98508H13.1679Z" stroke="white" stroke-width="2.2" stroke-miterlimit="22.926" stroke-linecap="round" stroke-linejoin="round"/>
<path d="M2 8.9852H14.0837" stroke="white" stroke-width="2.2" stroke-miterlimit="22.926" stroke-linecap="round" stroke-linejoin="round"/>
<path d="M3.83081 35.1666H5.57013" stroke="white" stroke-width="2.2" stroke-miterlimit="22.926" stroke-linecap="round" stroke-linejoin="round"/>
<path d="M3.83081 29.6739H5.57013" stroke="white" stroke-width="2.2" stroke-miterlimit="22.926" stroke-linecap="round" stroke-linejoin="round"/>
<path d="M3.83081 24.1812H5.57013" stroke="white" stroke-width="2.2" stroke-miterlimit="22.926" stroke-linecap="round" stroke-linejoin="round"/>
<path d="M3.83081 18.9634H12.7105" stroke="white" stroke-width="2.2" stroke-miterlimit="22.926" stroke-linecap="round" stroke-linejoin="round"/>
</svg>
