<svg width="39" height="39" viewBox="0 0 39 39" fill="none" xmlns="http://www.w3.org/2000/svg">
<path d="M35.8645 21.1963C37.8924 18.8726 39 15.9194 39 12.7874C39 9.35901 37.6734 6.14425 35.2645 3.73539C32.8557 1.32661 29.641 0 26.2126 0C22.7841 0 19.5694 1.32661 17.1606 3.73547L3.73547 17.1605C1.32661 19.5694 0 22.7841 0 26.2126C0 29.6411 1.32661 32.8557 3.73547 35.2646C6.14433 37.6735 9.35909 39 12.7874 39C15.9193 39 18.8725 37.8924 21.1963 35.8645C23.0824 37.7976 25.714 39 28.6216 39C34.3442 39 39 34.3443 39 28.6216C39 25.714 37.7976 23.0824 35.8645 21.1963ZM18.8841 5.45901C20.8326 3.51053 23.4352 2.4375 26.2126 2.4375C28.9899 2.4375 31.5926 3.51061 33.5411 5.45901C35.4895 7.40749 36.5625 10.0101 36.5625 12.7874C36.5625 15.3745 35.631 17.8097 33.9286 19.7061C32.3748 18.7777 30.5595 18.2432 28.6216 18.2431C26.1984 18.2431 23.9668 19.078 22.1987 20.4751L13.0333 11.3098L18.8841 5.45901ZM12.7874 36.5625C10.0101 36.5625 7.40741 35.4894 5.45893 33.541C1.41802 29.5001 1.41802 22.925 5.45893 18.8841L11.3097 13.0333L20.4751 22.1987C19.0781 23.9668 18.2431 26.1985 18.2431 28.6216C18.2431 30.5595 18.7776 32.3748 19.706 33.9286C17.8097 35.631 15.3746 36.5625 12.7874 36.5625ZM20.6807 28.6216C20.6807 24.6573 23.6007 21.3623 27.4028 20.7741V36.469C23.6007 35.8809 20.6807 32.5859 20.6807 28.6216ZM29.8403 36.469V20.7742C33.6425 21.3623 36.5625 24.6574 36.5625 28.6216C36.5625 32.5859 33.6425 35.8809 29.8403 36.469ZM20.8108 9.10932C20.3348 8.6334 20.3348 7.8617 20.8108 7.38578C22.2452 5.95138 24.1635 5.16148 26.2126 5.16148C28.2616 5.16148 30.1799 5.95138 31.6143 7.38578C32.0903 7.86178 32.0903 8.6334 31.6143 9.10932C31.1384 9.58532 30.3668 9.58532 29.8908 9.10932C28.9167 8.13531 27.6106 7.59898 26.2126 7.59898C24.8147 7.59898 23.5084 8.13538 22.5344 9.10939C22.2964 9.34743 21.9845 9.46641 21.6727 9.46641C21.3608 9.46641 21.0488 9.34728 20.8108 9.10932Z" fill="white"/>
</svg>
