<svg width="150" height="45" viewBox="0 0 150 45" fill="none" xmlns="http://www.w3.org/2000/svg">
<path d="M6.45567 17.9157L8.49204 21.4685C9.98682 18.154 12.5648 14.3629 16.2042 10.1168C19.3454 13.7563 21.6851 17.0708 23.2232 20.0387L27.1443 21.1869L29.5922 17.4174C26.1044 10.3985 20.0603 3.92109 16.2042 0C12.0882 4.20271 5.43749 11.33 2.10132 18.9339L6.45567 17.9157Z" fill="#004773"/>
<path d="M32.2353 25.6058C32.1053 24.5226 31.867 23.4611 31.5637 22.3779L29.0291 26.2557L25.173 25.1292C25.2596 25.5625 25.3463 25.9957 25.3896 26.4073L25.4113 26.5156L25.4329 26.624C25.4979 27.1006 25.5412 27.5772 25.5412 28.0538C25.5412 31.9532 23.1583 35.2894 19.7571 36.6758L17.5691 40.2503L20.602 43.6514C27.426 41.7451 32.4302 35.4843 32.4302 28.0538C32.4086 27.2305 32.3436 26.4073 32.2353 25.6058Z" fill="#0087BF"/>
<path d="M12.1749 40.7484L14.3412 37.2173C10.0735 36.3507 6.86732 32.5813 6.86732 28.0753C6.86732 27.8586 6.86732 27.642 6.88898 27.4254L4.28936 22.8977L0.49826 23.7859C0.368279 24.3925 0.259961 25.0207 0.194971 25.6273C0.0649904 26.4288 0 27.2521 0 28.0753C0 36.719 6.759 43.7813 15.2944 44.2579L12.1749 40.7484Z" fill="#00B5E6"/>
<path d="M143.648 23.9865C142.261 23.9865 141.457 23.0434 141.457 22.128V17.5789C141.457 16.3584 142.316 15.554 143.648 15.554H148.696L149.917 12.6138H143.648C139.21 12.6138 137.629 14.9715 137.629 16.9687V22.4054C137.629 24.4858 139.21 26.899 143.648 26.899H150V23.9865H143.648Z" fill="#004773"/>
<path d="M115.216 12.6138H107.782C103.372 12.6138 101.791 14.9715 101.791 16.9687V23.9865H100.043V26.899H116.936V23.9865H115.188V12.6138H115.216ZM111.416 23.9865H105.591V17.6067C105.591 16.3584 106.423 15.5818 107.782 15.5818H111.388V23.9865H111.416Z" fill="#004773"/>
<path d="M72.832 21.5732L68.1442 12.6138H63.6783V26.899H67.3675V17.5789L71.1677 24.7909H74.524L78.2964 17.5234V26.899H82.0134V12.6138H77.5475L72.832 21.5732Z" fill="#004773"/>
<path d="M89.1697 22.1003V21.0185H96.2153V18.3833H89.1697V15.554H96.4094L97.6299 12.6138H85.3973V22.3776C85.3973 24.458 86.9507 26.8713 91.3611 26.8713H97.7131V23.9587H91.3611C89.9187 23.9587 89.1697 22.9879 89.1697 22.1003Z" fill="#004773"/>
<path d="M53.8035 12.3638H52.4166C50.1975 12.3638 48.2558 13.6952 47.812 15.5259L45.0659 26.8432H48.8383L49.3376 24.7073H56.8824L57.354 26.8432H61.1819L58.4358 15.5259C57.992 13.6952 56.0503 12.3638 53.8035 12.3638ZM50.0033 21.8503L51.2238 16.6355C51.3625 15.9697 52.056 15.4705 52.8604 15.4705H53.3874C54.1918 15.4705 54.8853 15.9697 55.024 16.6355L56.2167 21.8503H50.0033Z" fill="#004773"/>
<path d="M123.482 21.49V12.6138H119.793V26.899H123.51L130.611 16.9687V26.899H134.328V12.6138H130.056L123.482 21.49Z" fill="#004773"/>
<path d="M46.3419 38.6344V35.0562H45.0659V40.1877H46.5083L49.0325 36.554V40.1877H50.3362V35.0562H48.8661L46.3419 38.6344Z" fill="#00B5E6"/>
<path d="M57.5481 37.1059H55.1626V35.0532H53.8312V40.1848H55.1626V37.9935H57.5481V40.1848H58.8795V35.0532H57.5481V37.1059Z" fill="#00B5E6"/>
<path d="M68.9486 37.7161C68.7267 37.5219 68.5325 37.411 68.3938 37.3832C68.5325 37.3278 68.6435 37.2723 68.7267 37.2168C68.8099 37.1336 68.9208 37.0226 69.0318 36.8839L69.3647 36.3569C69.5034 36.1628 69.6143 36.0518 69.6975 35.9963C69.7807 35.9686 69.9749 35.9408 70.2523 35.9408H70.6129V35.0532H70.0026C69.5311 35.0532 69.1982 35.1087 69.0041 35.2196C68.8099 35.3306 68.588 35.5525 68.3383 35.9131L67.7558 36.8285C67.6726 36.9672 67.5894 37.0226 67.5339 37.0781C67.4785 37.1059 67.3398 37.1336 67.1456 37.1336V35.081H65.8696V37.1336C65.6755 37.1336 65.5368 37.1059 65.4813 37.0781C65.4258 37.0504 65.3426 36.9672 65.2594 36.8285L64.6769 35.9131C64.4273 35.5525 64.2053 35.3029 64.0112 35.2196C63.817 35.1087 63.4841 35.0532 63.0126 35.0532H62.4024V35.9408H62.763C63.0403 35.9408 63.2345 35.9686 63.3177 35.9963C63.4009 36.0241 63.5119 36.1628 63.6506 36.3569L63.9834 36.8839C64.0944 37.0504 64.2053 37.1613 64.2886 37.2168C64.3718 37.3 64.4827 37.3555 64.6214 37.3832C64.4827 37.411 64.2886 37.5219 64.0666 37.7161C63.8447 37.9103 63.5951 38.1876 63.3732 38.5205L62.1527 40.2125H63.7061L64.7878 38.6869C65.0098 38.3541 65.2039 38.1599 65.3426 38.0767C65.4813 37.9935 65.6755 37.9657 65.9529 37.9657V40.2125H67.2288V37.9657C67.5062 37.9657 67.7281 37.9935 67.8391 38.0767C67.9777 38.1599 68.1442 38.3541 68.3938 38.6869L69.4756 40.2125H71.029L69.8085 38.5205C69.4201 38.1876 69.1705 37.9103 68.9486 37.7161Z" fill="#00B5E6"/>
<path d="M75.1897 38.6315V35.0532H73.9137V40.1848H75.3561L77.8803 36.5511V40.1848H79.184V35.0532H77.7416L75.1897 38.6315Z" fill="#00B5E6"/>
<path d="M86.4791 37.1059H84.0936V35.0532H82.7622V40.1848H84.0936V37.9935H86.4791V40.1848H87.8106V35.0532H86.4791V37.1059Z" fill="#00B5E6"/>
<path d="M92.7757 38.6315V35.0532H91.4998V40.1848H92.9422L95.4663 36.5511V40.1848H96.7423V35.0532H95.2999L92.7757 38.6315Z" fill="#00B5E6"/>
<path d="M105.23 35.2758C104.897 35.1093 104.315 35.0261 103.538 35.0261H100.681V41.9052H102.013V40.1577H103.372C104.204 40.1577 104.814 40.0745 105.202 39.8803C105.591 39.6862 105.757 39.3533 105.757 38.854V36.1911C105.73 35.7751 105.563 35.4422 105.23 35.2758ZM104.426 38.8263C104.426 39.0204 104.343 39.1314 104.204 39.2146C104.065 39.2978 103.816 39.3256 103.455 39.3256H101.985V35.9137H103.427C103.788 35.9137 104.065 35.9415 104.204 35.997C104.343 36.0524 104.398 36.1634 104.398 36.3298V38.8263H104.426Z" fill="#00B5E6"/>
<path d="M110.639 38.6315V35.0532H109.363V40.1848H110.806L113.358 36.5511V40.1848H114.634V35.0532H113.191L110.639 38.6315Z" fill="#00B5E6"/>
<path d="M122.151 37.1059H119.765V35.0532H118.434V40.1848H119.765V37.9935H122.151V40.1848H123.482V35.0532H122.151V37.1059Z" fill="#00B5E6"/>
<path d="M129.335 35.0532C128.53 35.0532 127.976 35.1364 127.643 35.3029C127.31 35.4693 127.144 35.7744 127.144 36.246V36.9117V37.5219V40.2403H128.447V38.7702V37.4942V36.9394V36.3847C128.447 36.2182 128.503 36.1073 128.641 36.0518C128.78 35.9963 129.03 35.9686 129.418 35.9686H130.666V35.081H129.335V35.0532Z" fill="#00B5E6"/>
</svg>
