<svg width="40" height="42" viewBox="0 0 40 42" fill="none" xmlns="http://www.w3.org/2000/svg">
<mask id="path-1-inside-1_139_661" fill="white">
<path d="M38.6136 34.5489H35.4921V31.7761H37.2272V26.2305H31.6817V27.9497H28.9089V24.8441C28.9089 24.4764 29.0549 24.1238 29.3149 23.8638C29.5749 23.6038 29.9276 23.4577 30.2953 23.4577H38.6136C38.9813 23.4577 39.3339 23.6038 39.5939 23.8638C39.8539 24.1238 40 24.4764 40 24.8441V33.1625C40 33.5302 39.8539 33.8828 39.5939 34.1428C39.3339 34.4028 38.9813 34.5489 38.6136 34.5489Z"/>
<path d="M31.6817 41.4808H23.3633C22.9956 41.4808 22.643 41.3348 22.383 41.0748C22.123 40.8148 21.9769 40.4621 21.9769 40.0944V31.7761C21.9769 31.4084 22.123 31.0558 22.383 30.7958C22.643 30.5358 22.9956 30.3897 23.3633 30.3897H31.6817C32.0493 30.3897 32.402 30.5358 32.662 30.7958C32.922 31.0558 33.068 31.4084 33.068 31.7761V40.0944C33.068 40.4621 32.922 40.8148 32.662 41.0748C32.402 41.3348 32.0493 41.4808 31.6817 41.4808ZM24.7497 38.7081H30.2953V33.1625H24.7497V38.7081Z"/>
<path fill-rule="evenodd" clip-rule="evenodd" d="M18.6335 25.3933C21.8771 25.3933 24.5064 22.7639 24.5064 19.5204C24.5064 16.2769 21.8771 13.6475 18.6335 13.6475C15.39 13.6475 12.7606 16.2769 12.7606 19.5204C12.7606 22.7639 15.39 25.3933 18.6335 25.3933ZM18.6335 28.3933C23.5339 28.3933 27.5064 24.4208 27.5064 19.5204C27.5064 14.62 23.5339 10.6475 18.6335 10.6475C13.7332 10.6475 9.76063 14.62 9.76063 19.5204C9.76063 24.4208 13.7332 28.3933 18.6335 28.3933Z"/>
<path d="M18.6338 38.819H15.5439C15.1279 38.819 14.7202 38.7247 14.3503 38.548L14.347 38.5463L14.3433 38.5445L14.3373 38.5417C14.1414 38.4468 13.9564 38.3287 13.7862 38.1888C13.2905 37.7818 12.9513 37.2157 12.8265 36.5869L12.1195 33.0932C11.4891 32.7879 10.8795 32.4416 10.2942 32.0564L10.2894 32.0534L6.93436 33.1902C6.64798 33.2834 6.34818 33.3302 6.04707 33.3289C5.84864 33.3302 5.64978 33.3096 5.45742 33.2686C5.43446 33.2637 5.41193 33.2587 5.38897 33.253C5.35387 33.2446 5.31921 33.2355 5.28455 33.2257C5.17278 33.1941 5.06403 33.1558 4.95702 33.1103C4.95312 33.1088 4.94879 33.1068 4.94489 33.1051C4.84741 33.0631 4.75209 33.0152 4.65938 32.9617C4.23783 32.718 3.88863 32.3662 3.64861 31.9425L0.376727 26.286C0.226823 26.0289 0.120677 25.7511 0.0600228 25.4641C0.00110117 25.1858 -0.014929 24.8985 0.0140986 24.6126C0.0197308 24.5562 0.0275293 24.5001 0.0366275 24.444C0.140174 23.8093 0.46121 23.2303 0.945147 22.8061L3.60702 20.477C3.57929 20.1165 3.56543 19.7699 3.56543 19.4095C3.56543 19.049 3.57929 18.7024 3.60702 18.342L0.945147 16.0128C0.46121 15.5887 0.140174 15.0096 0.0366275 14.3749C-0.0192615 14.034 -0.0101633 13.688 0.0600228 13.3549L0.0704208 13.3078C0.132375 13.0375 0.235055 12.7762 0.376727 12.533L3.64861 6.8765C3.88863 6.45279 4.23783 6.10099 4.65938 5.85729C4.74343 5.80876 4.82791 5.76566 4.91629 5.72645C4.92972 5.72038 4.94315 5.71453 4.95702 5.70868C5.06056 5.66471 5.16714 5.62702 5.27546 5.59582L5.28455 5.59322C5.34218 5.57698 5.39936 5.56268 5.45742 5.55033C5.65108 5.50896 5.84734 5.48881 6.04707 5.49011C6.34818 5.48881 6.64798 5.5356 6.93436 5.62875L10.2894 6.76559L10.2942 6.76256C10.8795 6.3774 11.4891 6.03102 12.1195 5.7258L12.8265 2.23209C12.9513 1.60323 13.2905 1.03719 13.7862 0.630158C13.9473 0.497801 14.1215 0.38494 14.3056 0.292875L14.3238 0.283994L14.3303 0.280528L14.3373 0.277278L14.3433 0.274462L14.3503 0.270996C14.7202 0.0942313 15.1279 0 15.5439 0H22.0876C22.4186 0.000216624 22.7444 0.0597881 23.0503 0.173299C23.3367 0.279661 23.6057 0.433247 23.8453 0.630158C24.1243 0.85913 24.3535 1.13857 24.5229 1.45095L24.5589 1.51918C24.6369 1.67363 24.701 1.8361 24.7495 2.0042C24.7712 2.07915 24.7898 2.15519 24.805 2.23209L25.512 5.7258C26.1424 6.03102 26.752 6.3774 27.3373 6.76256L27.342 6.76559L30.6971 5.62875C30.8405 5.58218 30.987 5.54708 31.1351 5.5239L31.2187 5.51221C31.3396 5.49704 31.4618 5.48968 31.5844 5.49011C31.8582 5.48838 32.1299 5.52759 32.3898 5.60579L32.4037 5.6099C32.6004 5.67034 32.7927 5.75353 32.9721 5.85729C33.3936 6.10099 33.7428 6.45279 33.9829 6.8765L37.2547 12.533C37.5784 13.0888 37.6984 13.74 37.5948 14.3749C37.4913 15.0096 37.1698 15.5887 36.6863 16.0128L34.0556 18.3166C34.0626 18.7711 34.066 19.2277 34.066 19.4095C34.066 19.5786 34.063 19.9857 34.057 20.4077H31.2361C31.3214 19.3536 31.2703 18.2904 31.0853 17.2467C31.0849 17.2439 31.0851 17.2418 31.0853 17.2398C31.0855 17.2377 31.0857 17.2357 31.0853 17.2328L31.5151 16.8585L34.8563 13.9194L31.5844 8.26289L26.8291 9.87111H26.8152C25.6979 8.94114 24.4328 8.20549 23.072 7.69447L22.0876 2.77278H15.5439L14.5595 7.69447C13.1987 8.20549 11.9336 8.94114 10.8163 9.87111H10.8024L6.04707 8.26289L2.77518 13.9194L6.11639 16.8585L6.54617 17.2328C6.54617 17.2328 6.54595 17.2373 6.54617 17.2398C6.54639 17.2423 6.54617 17.2467 6.54617 17.2467C6.51498 17.4222 6.48552 17.5961 6.46212 17.7725C6.29359 19.0347 6.32175 20.3165 6.54617 21.5723C6.54617 21.5723 6.54639 21.5767 6.54617 21.5792C6.54595 21.5817 6.54617 21.5861 6.54617 21.5861L6.11639 21.9604L2.77518 24.8996L6.04707 30.5561L10.8024 28.9479H10.8163C11.9332 29.8778 13.1987 30.6135 14.5595 31.1245L15.5439 36.0462H18.6338V38.819Z"/>
</mask>
<path d="M38.6136 34.5489H35.4921V31.7761H37.2272V26.2305H31.6817V27.9497H28.9089V24.8441C28.9089 24.4764 29.0549 24.1238 29.3149 23.8638C29.5749 23.6038 29.9276 23.4577 30.2953 23.4577H38.6136C38.9813 23.4577 39.3339 23.6038 39.5939 23.8638C39.8539 24.1238 40 24.4764 40 24.8441V33.1625C40 33.5302 39.8539 33.8828 39.5939 34.1428C39.3339 34.4028 38.9813 34.5489 38.6136 34.5489Z" fill="#00B5E5"/>
<path d="M31.6817 41.4808H23.3633C22.9956 41.4808 22.643 41.3348 22.383 41.0748C22.123 40.8148 21.9769 40.4621 21.9769 40.0944V31.7761C21.9769 31.4084 22.123 31.0558 22.383 30.7958C22.643 30.5358 22.9956 30.3897 23.3633 30.3897H31.6817C32.0493 30.3897 32.402 30.5358 32.662 30.7958C32.922 31.0558 33.068 31.4084 33.068 31.7761V40.0944C33.068 40.4621 32.922 40.8148 32.662 41.0748C32.402 41.3348 32.0493 41.4808 31.6817 41.4808ZM24.7497 38.7081H30.2953V33.1625H24.7497V38.7081Z" fill="#00B5E5"/>
<path fill-rule="evenodd" clip-rule="evenodd" d="M18.6335 25.3933C21.8771 25.3933 24.5064 22.7639 24.5064 19.5204C24.5064 16.2769 21.8771 13.6475 18.6335 13.6475C15.39 13.6475 12.7606 16.2769 12.7606 19.5204C12.7606 22.7639 15.39 25.3933 18.6335 25.3933ZM18.6335 28.3933C23.5339 28.3933 27.5064 24.4208 27.5064 19.5204C27.5064 14.62 23.5339 10.6475 18.6335 10.6475C13.7332 10.6475 9.76063 14.62 9.76063 19.5204C9.76063 24.4208 13.7332 28.3933 18.6335 28.3933Z" fill="#00B5E6"/>
<path d="M18.6338 38.819H15.5439C15.1279 38.819 14.7202 38.7247 14.3503 38.548L14.347 38.5463L14.3433 38.5445L14.3373 38.5417C14.1414 38.4468 13.9564 38.3287 13.7862 38.1888C13.2905 37.7818 12.9513 37.2157 12.8265 36.5869L12.1195 33.0932C11.4891 32.7879 10.8795 32.4416 10.2942 32.0564L10.2894 32.0534L6.93436 33.1902C6.64798 33.2834 6.34818 33.3302 6.04707 33.3289C5.84864 33.3302 5.64978 33.3096 5.45742 33.2686C5.43446 33.2637 5.41193 33.2587 5.38897 33.253C5.35387 33.2446 5.31921 33.2355 5.28455 33.2257C5.17278 33.1941 5.06403 33.1558 4.95702 33.1103C4.95312 33.1088 4.94879 33.1068 4.94489 33.1051C4.84741 33.0631 4.75209 33.0152 4.65938 32.9617C4.23783 32.718 3.88863 32.3662 3.64861 31.9425L0.376727 26.286C0.226823 26.0289 0.120677 25.7511 0.0600228 25.4641C0.00110117 25.1858 -0.014929 24.8985 0.0140986 24.6126C0.0197308 24.5562 0.0275293 24.5001 0.0366275 24.444C0.140174 23.8093 0.46121 23.2303 0.945147 22.8061L3.60702 20.477C3.57929 20.1165 3.56543 19.7699 3.56543 19.4095C3.56543 19.049 3.57929 18.7024 3.60702 18.342L0.945147 16.0128C0.46121 15.5887 0.140174 15.0096 0.0366275 14.3749C-0.0192615 14.034 -0.0101633 13.688 0.0600228 13.3549L0.0704208 13.3078C0.132375 13.0375 0.235055 12.7762 0.376727 12.533L3.64861 6.8765C3.88863 6.45279 4.23783 6.10099 4.65938 5.85729C4.74343 5.80876 4.82791 5.76566 4.91629 5.72645C4.92972 5.72038 4.94315 5.71453 4.95702 5.70868C5.06056 5.66471 5.16714 5.62702 5.27546 5.59582L5.28455 5.59322C5.34218 5.57698 5.39936 5.56268 5.45742 5.55033C5.65108 5.50896 5.84734 5.48881 6.04707 5.49011C6.34818 5.48881 6.64798 5.5356 6.93436 5.62875L10.2894 6.76559L10.2942 6.76256C10.8795 6.3774 11.4891 6.03102 12.1195 5.7258L12.8265 2.23209C12.9513 1.60323 13.2905 1.03719 13.7862 0.630158C13.9473 0.497801 14.1215 0.38494 14.3056 0.292875L14.3238 0.283994L14.3303 0.280528L14.3373 0.277278L14.3433 0.274462L14.3503 0.270996C14.7202 0.0942313 15.1279 0 15.5439 0H22.0876C22.4186 0.000216624 22.7444 0.0597881 23.0503 0.173299C23.3367 0.279661 23.6057 0.433247 23.8453 0.630158C24.1243 0.85913 24.3535 1.13857 24.5229 1.45095L24.5589 1.51918C24.6369 1.67363 24.701 1.8361 24.7495 2.0042C24.7712 2.07915 24.7898 2.15519 24.805 2.23209L25.512 5.7258C26.1424 6.03102 26.752 6.3774 27.3373 6.76256L27.342 6.76559L30.6971 5.62875C30.8405 5.58218 30.987 5.54708 31.1351 5.5239L31.2187 5.51221C31.3396 5.49704 31.4618 5.48968 31.5844 5.49011C31.8582 5.48838 32.1299 5.52759 32.3898 5.60579L32.4037 5.6099C32.6004 5.67034 32.7927 5.75353 32.9721 5.85729C33.3936 6.10099 33.7428 6.45279 33.9829 6.8765L37.2547 12.533C37.5784 13.0888 37.6984 13.74 37.5948 14.3749C37.4913 15.0096 37.1698 15.5887 36.6863 16.0128L34.0556 18.3166C34.0626 18.7711 34.066 19.2277 34.066 19.4095C34.066 19.5786 34.063 19.9857 34.057 20.4077H31.2361C31.3214 19.3536 31.2703 18.2904 31.0853 17.2467C31.0849 17.2439 31.0851 17.2418 31.0853 17.2398C31.0855 17.2377 31.0857 17.2357 31.0853 17.2328L31.5151 16.8585L34.8563 13.9194L31.5844 8.26289L26.8291 9.87111H26.8152C25.6979 8.94114 24.4328 8.20549 23.072 7.69447L22.0876 2.77278H15.5439L14.5595 7.69447C13.1987 8.20549 11.9336 8.94114 10.8163 9.87111H10.8024L6.04707 8.26289L2.77518 13.9194L6.11639 16.8585L6.54617 17.2328C6.54617 17.2328 6.54595 17.2373 6.54617 17.2398C6.54639 17.2423 6.54617 17.2467 6.54617 17.2467C6.51498 17.4222 6.48552 17.5961 6.46212 17.7725C6.29359 19.0347 6.32175 20.3165 6.54617 21.5723C6.54617 21.5723 6.54639 21.5767 6.54617 21.5792C6.54595 21.5817 6.54617 21.5861 6.54617 21.5861L6.11639 21.9604L2.77518 24.8996L6.04707 30.5561L10.8024 28.9479H10.8163C11.9332 29.8778 13.1987 30.6135 14.5595 31.1245L15.5439 36.0462H18.6338V38.819Z" fill="#00B5E5"/>
<path d="M38.6136 34.5489H35.4921V31.7761H37.2272V26.2305H31.6817V27.9497H28.9089V24.8441C28.9089 24.4764 29.0549 24.1238 29.3149 23.8638C29.5749 23.6038 29.9276 23.4577 30.2953 23.4577H38.6136C38.9813 23.4577 39.3339 23.6038 39.5939 23.8638C39.8539 24.1238 40 24.4764 40 24.8441V33.1625C40 33.5302 39.8539 33.8828 39.5939 34.1428C39.3339 34.4028 38.9813 34.5489 38.6136 34.5489Z" stroke="white" stroke-width="0.6" mask="url(#path-1-inside-1_139_661)"/>
<path d="M31.6817 41.4808H23.3633C22.9956 41.4808 22.643 41.3348 22.383 41.0748C22.123 40.8148 21.9769 40.4621 21.9769 40.0944V31.7761C21.9769 31.4084 22.123 31.0558 22.383 30.7958C22.643 30.5358 22.9956 30.3897 23.3633 30.3897H31.6817C32.0493 30.3897 32.402 30.5358 32.662 30.7958C32.922 31.0558 33.068 31.4084 33.068 31.7761V40.0944C33.068 40.4621 32.922 40.8148 32.662 41.0748C32.402 41.3348 32.0493 41.4808 31.6817 41.4808ZM24.7497 38.7081H30.2953V33.1625H24.7497V38.7081Z" stroke="white" stroke-width="0.6" mask="url(#path-1-inside-1_139_661)"/>
<path fill-rule="evenodd" clip-rule="evenodd" d="M18.6335 25.3933C21.8771 25.3933 24.5064 22.7639 24.5064 19.5204C24.5064 16.2769 21.8771 13.6475 18.6335 13.6475C15.39 13.6475 12.7606 16.2769 12.7606 19.5204C12.7606 22.7639 15.39 25.3933 18.6335 25.3933ZM18.6335 28.3933C23.5339 28.3933 27.5064 24.4208 27.5064 19.5204C27.5064 14.62 23.5339 10.6475 18.6335 10.6475C13.7332 10.6475 9.76063 14.62 9.76063 19.5204C9.76063 24.4208 13.7332 28.3933 18.6335 28.3933Z" stroke="white" stroke-width="0.6" mask="url(#path-1-inside-1_139_661)"/>
<path d="M18.6338 38.819H15.5439C15.1279 38.819 14.7202 38.7247 14.3503 38.548L14.347 38.5463L14.3433 38.5445L14.3373 38.5417C14.1414 38.4468 13.9564 38.3287 13.7862 38.1888C13.2905 37.7818 12.9513 37.2157 12.8265 36.5869L12.1195 33.0932C11.4891 32.7879 10.8795 32.4416 10.2942 32.0564L10.2894 32.0534L6.93436 33.1902C6.64798 33.2834 6.34818 33.3302 6.04707 33.3289C5.84864 33.3302 5.64978 33.3096 5.45742 33.2686C5.43446 33.2637 5.41193 33.2587 5.38897 33.253C5.35387 33.2446 5.31921 33.2355 5.28455 33.2257C5.17278 33.1941 5.06403 33.1558 4.95702 33.1103C4.95312 33.1088 4.94879 33.1068 4.94489 33.1051C4.84741 33.0631 4.75209 33.0152 4.65938 32.9617C4.23783 32.718 3.88863 32.3662 3.64861 31.9425L0.376727 26.286C0.226823 26.0289 0.120677 25.7511 0.0600228 25.4641C0.00110117 25.1858 -0.014929 24.8985 0.0140986 24.6126C0.0197308 24.5562 0.0275293 24.5001 0.0366275 24.444C0.140174 23.8093 0.46121 23.2303 0.945147 22.8061L3.60702 20.477C3.57929 20.1165 3.56543 19.7699 3.56543 19.4095C3.56543 19.049 3.57929 18.7024 3.60702 18.342L0.945147 16.0128C0.46121 15.5887 0.140174 15.0096 0.0366275 14.3749C-0.0192615 14.034 -0.0101633 13.688 0.0600228 13.3549L0.0704208 13.3078C0.132375 13.0375 0.235055 12.7762 0.376727 12.533L3.64861 6.8765C3.88863 6.45279 4.23783 6.10099 4.65938 5.85729C4.74343 5.80876 4.82791 5.76566 4.91629 5.72645C4.92972 5.72038 4.94315 5.71453 4.95702 5.70868C5.06056 5.66471 5.16714 5.62702 5.27546 5.59582L5.28455 5.59322C5.34218 5.57698 5.39936 5.56268 5.45742 5.55033C5.65108 5.50896 5.84734 5.48881 6.04707 5.49011C6.34818 5.48881 6.64798 5.5356 6.93436 5.62875L10.2894 6.76559L10.2942 6.76256C10.8795 6.3774 11.4891 6.03102 12.1195 5.7258L12.8265 2.23209C12.9513 1.60323 13.2905 1.03719 13.7862 0.630158C13.9473 0.497801 14.1215 0.38494 14.3056 0.292875L14.3238 0.283994L14.3303 0.280528L14.3373 0.277278L14.3433 0.274462L14.3503 0.270996C14.7202 0.0942313 15.1279 0 15.5439 0H22.0876C22.4186 0.000216624 22.7444 0.0597881 23.0503 0.173299C23.3367 0.279661 23.6057 0.433247 23.8453 0.630158C24.1243 0.85913 24.3535 1.13857 24.5229 1.45095L24.5589 1.51918C24.6369 1.67363 24.701 1.8361 24.7495 2.0042C24.7712 2.07915 24.7898 2.15519 24.805 2.23209L25.512 5.7258C26.1424 6.03102 26.752 6.3774 27.3373 6.76256L27.342 6.76559L30.6971 5.62875C30.8405 5.58218 30.987 5.54708 31.1351 5.5239L31.2187 5.51221C31.3396 5.49704 31.4618 5.48968 31.5844 5.49011C31.8582 5.48838 32.1299 5.52759 32.3898 5.60579L32.4037 5.6099C32.6004 5.67034 32.7927 5.75353 32.9721 5.85729C33.3936 6.10099 33.7428 6.45279 33.9829 6.8765L37.2547 12.533C37.5784 13.0888 37.6984 13.74 37.5948 14.3749C37.4913 15.0096 37.1698 15.5887 36.6863 16.0128L34.0556 18.3166C34.0626 18.7711 34.066 19.2277 34.066 19.4095C34.066 19.5786 34.063 19.9857 34.057 20.4077H31.2361C31.3214 19.3536 31.2703 18.2904 31.0853 17.2467C31.0849 17.2439 31.0851 17.2418 31.0853 17.2398C31.0855 17.2377 31.0857 17.2357 31.0853 17.2328L31.5151 16.8585L34.8563 13.9194L31.5844 8.26289L26.8291 9.87111H26.8152C25.6979 8.94114 24.4328 8.20549 23.072 7.69447L22.0876 2.77278H15.5439L14.5595 7.69447C13.1987 8.20549 11.9336 8.94114 10.8163 9.87111H10.8024L6.04707 8.26289L2.77518 13.9194L6.11639 16.8585L6.54617 17.2328C6.54617 17.2328 6.54595 17.2373 6.54617 17.2398C6.54639 17.2423 6.54617 17.2467 6.54617 17.2467C6.51498 17.4222 6.48552 17.5961 6.46212 17.7725C6.29359 19.0347 6.32175 20.3165 6.54617 21.5723C6.54617 21.5723 6.54639 21.5767 6.54617 21.5792C6.54595 21.5817 6.54617 21.5861 6.54617 21.5861L6.11639 21.9604L2.77518 24.8996L6.04707 30.5561L10.8024 28.9479H10.8163C11.9332 29.8778 13.1987 30.6135 14.5595 31.1245L15.5439 36.0462H18.6338V38.819Z" stroke="white" stroke-width="0.6" mask="url(#path-1-inside-1_139_661)"/>
</svg>
