<svg width="42" height="43" viewBox="0 0 42 43" fill="none" xmlns="http://www.w3.org/2000/svg">
<path d="M28.7538 4.36317C27.7213 3.98156 26.5864 3.98156 25.5538 4.36317L16.719 7.63086C16.621 7.66724 16.5364 7.73272 16.4766 7.81851C16.4169 7.9043 16.3848 8.00631 16.3846 8.11086V13.8401C15.3654 13.6771 14.3269 13.6771 13.3077 13.8401V8.10881C13.3078 7.3754 13.5326 6.65964 13.9518 6.05783C14.371 5.45602 14.9644 4.99704 15.6523 4.74265L24.4872 1.47701C26.2081 0.840996 28.0996 0.840996 29.8205 1.47701L38.6554 4.74265C39.3433 4.99704 39.9367 5.45602 40.3559 6.05783C40.7751 6.65964 40.9999 7.3754 41 8.10881V29.996C41.0003 30.7297 40.7757 31.446 40.3565 32.0482C39.9373 32.6504 39.3436 33.1097 38.6554 33.3642L30.4133 36.4083C30.6287 35.8093 30.7436 35.1693 30.7436 34.5068V33.0073L37.5887 30.478C37.6871 30.4415 37.7719 30.3757 37.8316 30.2895C37.8914 30.2033 37.9233 30.1009 37.9231 29.996V8.10881C37.9229 8.00425 37.8908 7.90225 37.8311 7.81646C37.7713 7.73067 37.6867 7.66519 37.5887 7.62881L28.7538 4.36317ZM20.5282 12.4247C20.1425 12.2914 19.8255 12.0104 19.647 11.6434C19.4685 11.2764 19.4431 10.8535 19.5764 10.4678C19.7097 10.0821 19.9908 9.76509 20.3577 9.58659C20.7247 9.4081 21.1476 9.3827 21.5333 9.51599L26.9856 11.4032C27.094 11.4405 27.2117 11.4405 27.32 11.4032L32.7559 9.51599C33.1416 9.38215 33.5647 9.40703 33.9321 9.58514C34.2995 9.76325 34.581 10.08 34.7149 10.4657C34.8487 10.8515 34.8238 11.2745 34.6457 11.6419C34.4676 12.0093 34.1508 12.2909 33.7651 12.4247L28.3292 14.3098C27.5685 14.5732 26.7413 14.5732 25.9805 14.3098L20.5262 12.4247H20.5282ZM8.22051 26.7837C7.83479 26.6504 7.51782 26.3693 7.33932 26.0023C7.16083 25.6353 7.13543 25.2125 7.26872 24.8268C7.40201 24.441 7.68306 24.1241 8.05006 23.9456C8.41705 23.7671 8.83992 23.7417 9.22564 23.875L14.8462 25.8196L20.4503 23.877C20.6428 23.8039 20.848 23.7702 21.0537 23.7779C21.2595 23.7856 21.4616 23.8345 21.6481 23.9218C21.8346 24.009 22.0017 24.1328 22.1395 24.2858C22.2773 24.4388 22.383 24.6179 22.4503 24.8125C22.5176 25.0071 22.5451 25.2133 22.5313 25.4187C22.5174 25.6241 22.4625 25.8247 22.3697 26.0085C22.277 26.1923 22.1482 26.3557 21.9912 26.4888C21.8341 26.622 21.6519 26.7222 21.4554 26.7837L16.3846 28.5416V34.0801C16.3846 34.4881 16.2225 34.8794 15.934 35.1679C15.6455 35.4565 15.2542 35.6186 14.8462 35.6186C14.4381 35.6186 14.0468 35.4565 13.7583 35.1679C13.4698 34.8794 13.3077 34.4881 13.3077 34.0801V28.5416L8.22051 26.7837ZM17.5128 16.2462C15.7919 15.6102 13.9004 15.6102 12.1795 16.2462L3.34462 19.5119C2.65674 19.7663 2.06329 20.2252 1.64411 20.8271C1.22494 21.4289 1.00015 22.1446 1 22.878V34.5088C0.99973 35.2426 1.22432 35.9588 1.64353 36.561C2.06273 37.1632 2.65641 37.6225 3.34462 37.877L12.1795 41.1406C13.9004 41.7766 15.7919 41.7766 17.5128 41.1406L26.3477 37.875C27.0359 37.6205 27.6296 37.1612 28.0488 36.5589C28.468 35.9567 28.6926 35.2405 28.6923 34.5068V22.876C28.6922 22.1426 28.4674 21.4268 28.0482 20.825C27.629 20.2232 27.0356 19.7642 26.3477 19.5098L17.5128 16.2442V16.2462ZM13.2462 19.1324C14.2787 18.7508 15.4136 18.7508 16.4462 19.1324L25.281 22.398C25.379 22.4344 25.4636 22.4999 25.5234 22.5857C25.5831 22.6715 25.6152 22.7735 25.6154 22.878V34.5088C25.6156 34.6137 25.5837 34.7162 25.5239 34.8024C25.4642 34.8886 25.3794 34.9544 25.281 34.9909L16.4462 38.2545C15.4136 38.6361 14.2787 38.6361 13.2462 38.2545L4.41128 34.9888C4.31294 34.9523 4.22815 34.8865 4.16836 34.8003C4.10858 34.7141 4.07666 34.6117 4.07692 34.5068V22.876C4.07708 22.7714 4.10919 22.6694 4.16895 22.5836C4.22871 22.4978 4.31326 22.4324 4.41128 22.396L13.2462 19.1303V19.1324Z" fill="#00B5E5" stroke="white" stroke-width="0.8"/>
</svg>
