<svg width="40" height="40" viewBox="0 0 40 40" fill="none" xmlns="http://www.w3.org/2000/svg">
<path d="M30.5692 13.8462V14.0462H30.7692H35.8921C36.9282 14.0473 37.9215 14.4594 38.6541 15.192C39.3867 15.9247 39.7988 16.918 39.8 17.9541V30.769C39.7988 31.8048 39.3869 32.7979 38.6546 33.5305C37.9223 34.2631 36.9294 34.6754 35.8935 34.6769H34.8785H34.6785V34.8769V38.4615C34.6785 38.7101 34.6092 38.9538 34.4786 39.1652C34.3479 39.3767 34.1609 39.5475 33.9386 39.6587C33.7163 39.7699 33.4674 39.8169 33.2198 39.7946C32.9722 39.7723 32.7358 39.6814 32.5369 39.5323L32.5367 39.5322L26.0998 34.7168L26.0465 34.6769H25.98H17.9541C16.918 34.6758 15.9247 34.2637 15.192 33.531C14.4594 32.7984 14.0473 31.8051 14.0462 30.769V26.5385V26.1385L13.7262 26.3785L8.49538 30.3015C8.29653 30.4507 8.06007 30.5415 7.81251 30.5638C7.56495 30.5861 7.31606 30.5391 7.09373 30.4279C6.8714 30.3168 6.68442 30.1459 6.55374 29.9344C6.42306 29.723 6.35385 29.4793 6.35385 29.2308V24.6154V24.4154H6.15385H4.61538C3.44435 24.4154 2.32128 23.9502 1.49324 23.1221C0.665191 22.2941 0.2 21.171 0.2 20V4.61538C0.2 3.44435 0.665191 2.32128 1.49324 1.49324C2.32128 0.665191 3.44435 0.2 4.61538 0.2H26.1538C27.3249 0.2 28.448 0.665191 29.276 1.49324C30.104 2.32128 30.5692 3.44435 30.5692 4.61538V13.8462ZM9.03077 26.1538V26.5541L9.35084 26.3138L15.0892 22.0062C15.0893 22.0061 15.0893 22.0061 15.0893 22.0061C15.321 21.8324 15.6027 21.7385 15.8923 21.7385H26.1538C26.6149 21.7385 27.0571 21.5553 27.3831 21.2293C27.7092 20.9033 27.8923 20.4611 27.8923 20V4.61538C27.8923 4.15432 27.7092 3.71213 27.3831 3.38611C27.0571 3.06008 26.6149 2.87692 26.1538 2.87692H4.61538C4.15432 2.87692 3.71213 3.06008 3.38611 3.38611C3.06008 3.71213 2.87692 4.15432 2.87692 4.61538V20C2.87692 20.4611 3.06008 20.9033 3.38611 21.2293C3.71213 21.5553 4.15432 21.7385 4.61538 21.7385H7.69231C8.04729 21.7385 8.38773 21.8795 8.63874 22.1305C8.88975 22.3815 9.03077 22.7219 9.03077 23.0769V26.1538ZM31.6802 35.5447L32 35.7841V35.3846V33.3385C32 32.9835 32.141 32.643 32.392 32.392C32.643 32.141 32.9835 32 33.3385 32H35.8923C36.0539 32 36.214 31.9682 36.3633 31.9063C36.5126 31.8445 36.6483 31.7538 36.7626 31.6395C36.8769 31.5252 36.9675 31.3895 37.0294 31.2402C37.0912 31.0909 37.1231 30.9309 37.1231 30.7692V17.9538C37.1231 17.6274 36.9934 17.3144 36.7626 17.0836C36.5318 16.8527 36.2187 16.7231 35.8923 16.7231H30.7692H30.5692V16.9231V20C30.5692 21.171 30.104 22.2941 29.276 23.1221C28.448 23.9502 27.3249 24.4154 26.1538 24.4154L26.1524 24.4154L16.9216 24.4831L16.7231 24.4845V24.6831L16.7231 30.7692L16.7231 30.7704C16.725 31.0956 16.8555 31.4067 17.0862 31.636C17.3168 31.8652 17.6287 31.9939 17.9538 31.9938H26.4908C26.7804 31.9938 27.0622 32.0878 27.2938 32.2615L27.294 32.2617L31.6802 35.5447Z" fill="#00B5E6" stroke="white" stroke-width="0.4"/>
<path d="M7.89232 7.89238H22.8769V10.5693H7.89232V7.89238Z" fill="#00B5E6" stroke="white" stroke-width="0.4"/>
<path d="M7.89232 14.0462H15.1846V16.7231H7.89232V14.0462Z" fill="#00B5E6" stroke="white" stroke-width="0.4"/>
</svg>
