<svg width="40" height="39" viewBox="0 0 40 39" fill="none" xmlns="http://www.w3.org/2000/svg">
<path d="M33.3426 11.2143V11.3597L33.4809 11.4046C40.0102 13.5211 41.9889 21.8681 36.9915 26.6692L36.93 26.7282V26.8134V36.5915C36.93 37.2727 36.377 37.8264 35.695 37.8264C35.6828 37.8264 35.6713 37.8265 35.6604 37.8265C35.5513 37.8267 35.5028 37.8268 35.4209 37.8027C35.3206 37.7733 35.1719 37.7065 34.873 37.5447C34.5208 37.354 33.9829 37.0445 33.1065 36.5402C32.5045 36.1938 31.7428 35.7554 30.7719 35.2006L30.6726 35.1439L30.5734 35.2006L26.2629 37.6637C25.4384 38.1348 24.4153 37.5361 24.4153 36.5915V31.5691V31.3691H24.2153H3.11613C1.5083 31.3691 0.2 30.0608 0.2 28.4529V3.11613C0.2 1.5083 1.5083 0.2 3.11613 0.2H30.4264C32.0342 0.2 33.3426 1.50831 33.3426 3.11613V11.2143ZM30.6726 10.962H30.8726V10.762V3.11613C30.8726 2.86989 30.6727 2.66995 30.4264 2.66995H3.11613C2.86989 2.66995 2.66995 2.86989 2.66995 3.11613V28.4529C2.66995 28.6992 2.86989 28.8991 3.11613 28.8991H24.2153H24.4153V28.6991V26.8134V26.7282L24.3538 26.6692C22.6234 25.0068 21.5453 22.6717 21.5453 20.0893C21.5453 15.0566 25.64 10.962 30.6726 10.962ZM34.1608 34.2924L34.4601 34.4634L34.4601 34.1187L34.46 28.6987L34.46 28.3982L34.1828 28.5142C31.941 29.4518 29.4011 29.4506 27.1623 28.5142L26.8851 28.3982V28.6987V34.1187V34.4634L27.1843 34.2924L30.0598 32.6493C30.4396 32.4323 30.9056 32.4323 31.2853 32.6493L34.1608 34.2924ZM29.4463 20.5079L29.6127 20.6188L29.7236 20.4524L31.7976 17.3415L31.7976 17.3415C32.1759 16.774 32.9428 16.6206 33.5102 16.9989C34.0778 17.3773 34.2311 18.1441 33.8528 18.7115L34.009 18.8157L33.8528 18.7115L30.9828 23.0164C30.7448 23.3733 30.3534 23.5666 29.9538 23.5666C29.8223 23.5666 29.7348 23.5587 29.6399 23.5302C29.5417 23.5007 29.4245 23.4457 29.241 23.3358C29.006 23.1949 28.6852 22.9784 28.1868 22.642C27.8966 22.4462 27.5463 22.2098 27.1177 21.924C26.5501 21.5457 26.3968 20.7789 26.7751 20.2114L26.6087 20.1005L26.7751 20.2114C27.1535 19.6439 27.9202 19.4906 28.4877 19.8689L29.4463 20.5079ZM24.0153 20.0893C24.0153 23.7604 27.0016 26.7467 30.6726 26.7467C34.3437 26.7467 37.33 23.7604 37.33 20.0893C37.33 16.4182 34.3437 13.4319 30.6726 13.4319C27.0016 13.4319 24.0153 16.4182 24.0153 20.0893Z" fill="#00B5E6" stroke="white" stroke-width="0.4"/>
<rect x="7.73394" y="7.73369" width="14.1297" height="2.64945" fill="#00B5E6" stroke="white" stroke-width="0.4"/>
<path d="M7.73394 13.8328H17.6482V16.4823H7.73394V13.8328Z" fill="#00B5E6" stroke="white" stroke-width="0.4"/>
<rect x="7.73394" y="19.9319" width="6.32673" height="2.64945" fill="#00B5E6" stroke="white" stroke-width="0.4"/>
</svg>
