<?xml version="1.0" encoding="utf-8"?><svg viewBox="0 0 22 23" xmlns="http://www.w3.org/2000/svg" xmlns:xlink="http://www.w3.org/1999/xlink"><style>:root>svg{display:none}:root>svg:target{display:block}</style><svg viewBox="0 0 13 10" id="check" xmlns="http://www.w3.org/2000/svg"><path d="M4.333 6.988L1.59 4.244.411 5.423l3.922 3.922 8.09-8.089L11.244.078l-6.91 6.91z"/></svg><svg fill="none" viewBox="0 0 21 21" id="close" xmlns="http://www.w3.org/2000/svg"><path d="M.354.646l19.707 19.708M.504 20.354L20.211.646"/></svg><svg fill="none" viewBox="0 0 12 22" id="next" xmlns="http://www.w3.org/2000/svg"><path d="M1 21l9.9-9.9L1 1.202"/></svg><svg fill="none" viewBox="0 0 22 23" id="pdf" xmlns="http://www.w3.org/2000/svg"><path d="M2.41 11H0v7h1.288v-1.93H2.41c1.487 0 2.418-.97 2.418-2.53 0-1.57-.93-2.54-2.418-2.54zm-.072 3.75h-1.05v-2.43h1.05c.787 0 1.185.45 1.185 1.22 0 .76-.398 1.21-1.185 1.21zM5.985 18h2.529c1.82 0 3.07-1.38 3.07-3.5s-1.25-3.5-3.07-3.5H5.985v7zm1.288-1.33v-4.34H8.45c1.106 0 1.83.83 1.83 2.17 0 1.34-.724 2.17-1.83 2.17H7.273zM17 12.3V11h-4.207v7h1.289v-2.55h2.576v-1.3h-2.576V12.3H17z" fill="#00BAEC"/><path fill-rule="evenodd" clip-rule="evenodd" d="M5 2v6H3V0h13.089L22 6v17H3v-2h17V8h-6V2H5z" fill="#00BAEC"/></svg><svg fill="none" viewBox="0 0 16 16" id="plus" xmlns="http://www.w3.org/2000/svg"><path d="M7.967 0v16M16 7.967H0"/></svg></svg>